<svg width="25" height="25" fill="none" xmlns="http://www.w3.org/2000/svg"><path d="M25 12.501A12.501 12.501 0 002.618 4.846a12.501 12.501 0 001.45 16.884l.148.122a12.475 12.475 0 0016.568 0l.147-.122A12.476 12.476 0 0025 12.5zm-23.53 0a11.03 11.03 0 1119.057 7.55 9.522 9.522 0 00-4.902-3.836 5.638 5.638 0 10-6.25 0 9.522 9.522 0 00-4.902 3.836 10.97 10.97 0 01-3.002-7.55zm6.863-.98a4.167 4.167 0 114.167 4.167 4.179 4.179 0 01-4.167-4.167zm-2.77 9.559a8.101 8.101 0 0113.873 0 11.041 11.041 0 01-13.872 0z" fill="url(#paint0_linear_510_974)"/><defs><linearGradient id="paint0_linear_510_974" x1="0" y1="9.625" x2="25" y2="9.625" gradientUnits="userSpaceOnUse"><stop stop-color="#FF585F"/><stop offset="1" stop-color="#F957A2"/></linearGradient></defs></svg>